<svg xmlns="http://www.w3.org/2000/svg" width="756" height="756" viewBox="0 0 756 756" version="1.1">
	<path d="M 646.500 4.661 C 643.761 5.248, 636.427 7.890, 631 10.246 C 628.525 11.320, 625.600 12.559, 624.500 12.998 C 623.400 13.437, 620.925 14.473, 619 15.301 C 617.075 16.128, 608.525 19.578, 600 22.967 C 591.475 26.356, 583.600 29.549, 582.500 30.063 C 581.400 30.577, 547.650 44.292, 507.500 60.541 L 434.500 90.084 428 89.079 C 406.723 85.789, 367.191 85.285, 342 87.983 C 337.325 88.483, 329.675 89.178, 325 89.525 L 316.500 90.158 293 80.571 C 280.075 75.298, 268.600 70.598, 267.500 70.126 C 266.400 69.654, 264.375 68.803, 263 68.236 C 261.625 67.668, 258.881 66.495, 256.903 65.627 C 254.924 64.760, 249.118 62.453, 244 60.500 C 238.882 58.547, 233.076 56.240, 231.097 55.373 C 229.119 54.505, 226.488 53.392, 225.250 52.898 C 224.012 52.404, 221.988 51.549, 220.750 50.998 C 219.512 50.446, 195.100 40.489, 166.500 28.870 C 117.780 9.077, 114.090 7.741, 108 7.681 C 102.625 7.629, 100.783 8.074, 97.357 10.254 C 92.741 13.191, 89.878 16.813, 88.153 21.899 C 85.596 29.438, 87.194 34.646, 96.856 50.266 C 100.686 56.458, 113.226 80.759, 115.037 85.500 C 115.457 86.600, 116.689 89.525, 117.775 92 C 120.813 98.926, 128.322 121.663, 131.976 135 C 135.113 146.453, 138.339 161.667, 140.883 177 C 143.545 193.049, 144.318 198.977, 147.005 224 C 148.606 238.908, 149.184 263.222, 148.027 267 C 144.664 277.975, 143.647 286.126, 143.596 302.500 C 143.539 320.824, 144.931 330.538, 149.688 345 C 152.958 354.943, 160.521 370.717, 166.469 380 C 183.535 406.633, 217.020 435.109, 249.053 450.230 C 271.377 460.767, 293.042 468.158, 314.500 472.556 C 329.484 475.627, 331.923 476.025, 345 477.528 C 378.680 481.401, 425.405 478.387, 455.750 470.385 C 458.637 469.623, 463.587 468.309, 466.750 467.464 C 469.913 466.620, 478.125 463.858, 485 461.328 C 546.972 438.522, 592.890 396.718, 609.903 347.619 C 617.733 325.020, 619.458 298.234, 614.514 276 C 613.107 269.675, 611.066 262.121, 609.978 259.212 C 607.546 252.711, 607.421 242.861, 609.493 221 C 612.762 186.513, 616.321 163.750, 622 141 C 622.481 139.075, 623.413 135.250, 624.071 132.500 C 630.780 104.494, 645.882 67.754, 660.037 45 C 667.788 32.541, 669 29.702, 669 23.999 C 669 15.105, 663.797 7.908, 655.609 5.476 C 650.525 3.967, 649.970 3.917, 646.500 4.661 M 625 25.020 C 613.175 29.877, 601.925 34.515, 600 35.328 C 598.075 36.141, 589.525 39.594, 581 43 C 572.475 46.407, 563.925 49.872, 562 50.699 C 560.075 51.527, 557.600 52.562, 556.500 53 C 555.400 53.438, 552.857 54.517, 550.849 55.398 C 548.841 56.279, 541.866 59.059, 535.349 61.576 C 528.832 64.092, 522.150 66.739, 520.500 67.457 C 518.850 68.175, 515.925 69.447, 514 70.284 C 512.075 71.120, 498.645 76.600, 484.156 82.461 C 469.668 88.322, 453.918 95.143, 449.156 97.617 L 440.500 102.117 428 100.447 C 409.368 97.957, 363.983 97.413, 343.500 99.433 C 334.700 100.301, 324.155 101.507, 320.066 102.114 C 313.649 103.066, 312.476 103.004, 311.497 101.665 C 310.873 100.812, 308.087 99.217, 305.306 98.121 C 302.525 97.024, 298.056 95.146, 295.375 93.947 C 287.031 90.216, 286.577 90.031, 197.761 54.095 C 150.055 34.793, 109.863 19, 108.445 19 C 105.455 19, 102.023 20.645, 100.282 22.913 C 97.532 26.494, 98.807 31.174, 105.616 42.500 C 118.973 64.717, 130.770 91.183, 138.380 116 C 142.331 128.886, 149.149 156.837, 150.943 167.500 C 151.590 171.350, 152.515 176.525, 152.998 179 C 154.360 185.982, 157.379 210.473, 158.977 227.500 C 159.494 233, 160.415 239.525, 161.025 242 C 163.303 251.242, 163.328 258.139, 161.105 263.757 C 158.430 270.514, 156.343 280.600, 154.958 293.463 C 151.657 324.124, 163.401 359.672, 185.861 387 C 203.661 408.658, 228.655 427.775, 256 440.647 C 270.799 447.613, 272.632 448.361, 287.500 453.489 C 304.935 459.503, 328.414 464.261, 354.500 467.069 C 366.410 468.351, 400.333 467.854, 415.016 466.183 C 465.340 460.454, 514.115 440.981, 548.500 412.891 C 556.296 406.522, 570.532 392.161, 576.645 384.500 C 589.159 368.817, 599.245 347.606, 603.512 328 C 606.046 316.359, 606.566 296.293, 604.613 285.500 C 601.987 270.982, 601.441 268.911, 598.025 260.500 C 594.992 253.030, 594.813 251.937, 595.327 244 C 595.631 239.325, 596.345 232.350, 596.915 228.500 C 597.485 224.650, 598.442 216.325, 599.041 210 C 600.242 197.316, 601.572 186.652, 603.094 177.500 C 604.058 171.703, 604.546 168.960, 607.096 155 C 609.051 144.293, 615.599 119.307, 619.805 106.500 C 627.876 81.926, 638.907 57.438, 649.987 39.500 C 656.034 29.711, 658.177 24.555, 657.434 21.593 C 656.652 18.479, 652.935 15.970, 649.285 16.095 C 647.753 16.148, 636.825 20.164, 625 25.020 M 270 158.115 C 262.436 158.832, 255.891 160.897, 247.500 165.216 C 238.934 169.624, 228.997 177.090, 228.527 179.469 C 227.699 183.667, 227.126 198.998, 227.799 198.962 C 228.184 198.941, 231.425 196.184, 235 192.834 C 243.317 185.040, 251.195 179.705, 260.279 175.713 C 267.017 172.752, 268.270 172.540, 279 172.537 C 288.991 172.535, 291.222 172.852, 296 174.957 C 304.086 178.517, 314.687 185.982, 321.422 192.859 C 324.679 196.185, 327.717 198.675, 328.172 198.394 C 328.627 198.112, 329 193.856, 329 188.936 L 329 179.989 322.456 175.245 C 303.933 161.816, 287.521 156.457, 270 158.115 M 475.500 159.453 C 463.368 161.599, 456.260 164.811, 443.075 174.109 L 437.298 178.184 436.149 187.533 C 434.769 198.763, 434.742 200, 435.878 200 C 436.361 200, 439.849 197.171, 443.628 193.712 C 457.314 181.191, 467.042 175.759, 479.739 173.551 C 496.180 170.692, 515.469 178.552, 529.500 193.827 C 536.668 201.631, 537 201.488, 537 190.594 L 537 181.117 531.250 176.708 C 524.060 171.196, 512.354 164.836, 504.500 162.176 C 499.290 160.411, 485.659 157.794, 483.308 158.108 C 482.864 158.167, 479.350 158.772, 475.500 159.453 M 374.650 273.698 C 369.822 274.468, 365.644 277.407, 362.250 282.423 C 359.475 286.524, 359 288.106, 359 293.246 C 359 298.190, 359.648 300.540, 362.623 306.383 C 364.616 310.298, 366.866 314.388, 367.623 315.473 C 368.669 316.971, 369 321.796, 369 335.548 C 369 353.064, 368.927 353.716, 366.750 355.647 C 364.094 358.004, 354.202 365, 353.527 365 C 353.270 365, 350.458 366.192, 347.280 367.650 C 335.818 372.905, 321.049 372.473, 308.316 366.510 C 299.422 362.344, 295.798 359.752, 286 350.547 L 278.500 343.500 278.209 354.500 C 278.049 360.550, 278.152 366.440, 278.438 367.589 C 278.724 368.742, 282.042 371.729, 285.839 374.254 C 304.911 386.936, 321.144 391.615, 336.839 388.954 C 349.379 386.827, 357.684 382.811, 375.284 370.361 L 379.068 367.684 387.284 373.256 C 404.526 384.948, 415.059 388.410, 431.449 387.774 C 443.938 387.289, 451.490 385.130, 461.500 379.183 C 469.828 374.235, 477.766 368.314, 478.850 366.241 C 480.101 363.848, 481.413 343, 480.312 343 C 479.828 343, 476.972 345.505, 473.966 348.567 C 466.939 355.724, 457.723 362.314, 449.783 365.860 C 441.822 369.416, 429.843 371.426, 425.007 370.018 C 423.085 369.458, 420.509 369, 419.282 369 C 415.918 369, 404.500 363.458, 397.347 358.354 L 391 353.824 391 336.317 C 391 320.755, 391.210 318.514, 392.889 316.154 C 403.405 301.377, 404.113 287.912, 394.816 279.500 C 392.992 277.850, 390.582 275.993, 389.460 275.373 C 387.007 274.017, 378.606 273.067, 374.650 273.698 M 240.651 466.001 C 233.381 469.630, 229.661 475.823, 229.737 484.169 C 229.790 489.912, 231.081 493.162, 239.110 507.750 C 242.447 513.813, 246.024 520.412, 251.711 531 C 253.927 535.125, 257.374 541.538, 259.370 545.250 C 261.367 548.962, 264.633 555.038, 266.630 558.750 C 268.626 562.462, 272.073 568.875, 274.289 573 C 276.504 577.125, 279.536 582.750, 281.027 585.500 C 283.627 590.299, 286.526 595.686, 295.288 612 C 297.503 616.125, 300.425 621.525, 301.781 624 C 303.137 626.475, 306.736 633.225, 309.779 639 C 312.821 644.775, 315.634 649.950, 316.030 650.500 C 316.426 651.050, 319.108 656, 321.991 661.500 C 324.873 667, 328.017 672.850, 328.979 674.500 C 329.940 676.150, 332.876 681.550, 335.504 686.500 C 339.764 694.524, 345.811 705.761, 356.759 726 C 358.692 729.575, 361.850 735.425, 363.775 739 C 369.307 749.272, 373.762 753, 380.500 753 C 386.804 753, 391.734 749.051, 396.733 740 C 397.796 738.075, 401.505 731.325, 404.975 725 C 412.440 711.394, 415.028 706.716, 417.700 702 C 418.791 700.075, 422.751 692.875, 426.500 686 C 430.249 679.125, 434.073 672.150, 434.996 670.500 C 435.920 668.850, 440.650 660.300, 445.508 651.500 C 450.366 642.700, 455.092 634.150, 456.012 632.500 C 456.931 630.850, 460.751 623.875, 464.500 617 C 468.249 610.125, 472.070 603.150, 472.991 601.500 C 473.912 599.850, 477.505 593.325, 480.975 587 C 484.445 580.675, 488.408 573.475, 489.782 571 C 495.787 560.179, 497.049 557.892, 503.026 547 C 506.497 540.675, 510.335 533.700, 511.556 531.500 C 529.489 499.188, 530.902 496.378, 531.702 491.451 C 532.970 483.632, 527.573 473.863, 519.791 469.893 C 514.200 467.041, 505.877 467.678, 489 472.249 C 475.486 475.909, 458.079 479.334, 444 481.102 C 430.208 482.835, 397.632 484.984, 385.500 484.962 C 373.165 484.940, 342.453 482.858, 326.500 480.962 C 315.907 479.703, 285.424 473.761, 278.985 471.700 C 276.518 470.911, 271.125 469.274, 267 468.062 C 262.875 466.851, 258.195 465.442, 256.601 464.930 C 251.964 463.443, 244.814 463.923, 240.651 466.001" stroke="none" fill="black" fill-rule="evenodd"/>
</svg>